<svg width="1280" height="640" viewBox="0 0 1280 640" fill="none" xmlns="http://www.w3.org/2000/svg">
  <defs>
    <linearGradient id="bg" x1="96" y1="64" x2="1184" y2="576" gradientUnits="userSpaceOnUse">
      <stop stop-color="#07131D"/>
      <stop offset="0.52" stop-color="#102532"/>
      <stop offset="1" stop-color="#173B47"/>
    </linearGradient>
    <linearGradient id="panel" x1="0" y1="0" x2="1" y2="1">
      <stop stop-color="#0D1E2A" stop-opacity="0.95"/>
      <stop offset="1" stop-color="#132F3B" stop-opacity="0.92"/>
    </linearGradient>
    <linearGradient id="accent" x1="0" y1="0" x2="1" y2="1">
      <stop stop-color="#6EE7B7"/>
      <stop offset="1" stop-color="#2DD4BF"/>
    </linearGradient>
    <filter id="shadow" x="-20%" y="-20%" width="140%" height="140%">
      <feDropShadow dx="0" dy="14" stdDeviation="18" flood-color="#020617" flood-opacity="0.42"/>
    </filter>
  </defs>

  <rect width="1280" height="640" rx="32" fill="url(#bg)"/>
  <circle cx="160" cy="110" r="170" fill="#0F766E" opacity="0.16"/>
  <circle cx="1120" cy="520" r="220" fill="#22C55E" opacity="0.12"/>
  <circle cx="1040" cy="116" r="120" fill="#38BDF8" opacity="0.10"/>

  <path d="M72 500C190 445 240 380 338 344C444 304 527 322 624 276C733 224 789 152 907 148C1024 145 1102 201 1208 182" stroke="#7DD3FC" stroke-opacity="0.24" stroke-width="2"/>
  <path d="M80 552C179 533 256 480 346 472C453 462 511 510 606 504C706 498 786 422 874 408C1008 387 1091 444 1218 430" stroke="#6EE7B7" stroke-opacity="0.22" stroke-width="2"/>

  <rect x="64" y="56" width="672" height="528" rx="28" fill="url(#panel)" stroke="#7DD3FC" stroke-opacity="0.18" filter="url(#shadow)"/>
  <rect x="786" y="116" width="434" height="404" rx="28" fill="url(#panel)" stroke="#6EE7B7" stroke-opacity="0.18" filter="url(#shadow)"/>

  <text x="112" y="144" fill="#A5F3FC" font-family="Segoe UI, Arial, sans-serif" font-size="18" letter-spacing="3.4">HOME LAB</text>
  <text x="112" y="224" fill="#F8FAFC" font-family="Segoe UI, Arial, sans-serif" font-size="54" font-weight="700">SOC &amp; Security</text>
  <text x="112" y="286" fill="#F8FAFC" font-family="Segoe UI, Arial, sans-serif" font-size="54" font-weight="700">Testing Environment</text>
  <text x="112" y="344" fill="#BFDBFE" font-family="Segoe UI, Arial, sans-serif" font-size="24">
    Isolated VirtualBox networking, pfSense segmentation,
  </text>
  <text x="112" y="378" fill="#BFDBFE" font-family="Segoe UI, Arial, sans-serif" font-size="24">
    controlled attack simulation, and Splunk-backed visibility.
  </text>

  <rect x="112" y="426" width="146" height="42" rx="21" fill="#0F766E" fill-opacity="0.34" stroke="#5EEAD4" stroke-opacity="0.34"/>
  <text x="139" y="453" fill="#CCFBF1" font-family="Segoe UI, Arial, sans-serif" font-size="18" font-weight="600">VirtualBox</text>
  <rect x="274" y="426" width="118" height="42" rx="21" fill="#0B3B2E" fill-opacity="0.46" stroke="#4ADE80" stroke-opacity="0.30"/>
  <text x="307" y="453" fill="#DCFCE7" font-family="Segoe UI, Arial, sans-serif" font-size="18" font-weight="600">pfSense</text>
  <rect x="408" y="426" width="110" height="42" rx="21" fill="#264653" fill-opacity="0.44" stroke="#7DD3FC" stroke-opacity="0.34"/>
  <text x="442" y="453" fill="#E0F2FE" font-family="Segoe UI, Arial, sans-serif" font-size="18" font-weight="600">Splunk</text>

  <text x="824" y="164" fill="#D1FAE5" font-family="Segoe UI, Arial, sans-serif" font-size="16" letter-spacing="2.8">TRAFFIC FLOW</text>

  <rect x="838" y="204" width="132" height="72" rx="18" fill="#0B1B29" stroke="#67E8F9" stroke-opacity="0.32"/>
  <text x="874" y="232" fill="#F8FAFC" font-family="Segoe UI, Arial, sans-serif" font-size="16" font-weight="600">HOST</text>
  <text x="860" y="254" fill="#BFDBFE" font-family="Segoe UI, Arial, sans-serif" font-size="13">VirtualBox</text>

  <rect x="1038" y="204" width="140" height="72" rx="18" fill="#0B1B29" stroke="#67E8F9" stroke-opacity="0.32"/>
  <text x="1086" y="232" fill="#F8FAFC" font-family="Segoe UI, Arial, sans-serif" font-size="16" font-weight="600">WAN</text>
  <text x="1061" y="254" fill="#BFDBFE" font-family="Segoe UI, Arial, sans-serif" font-size="13">NAT uplink</text>

  <rect x="936" y="322" width="152" height="84" rx="22" fill="url(#accent)" fill-opacity="0.14" stroke="#6EE7B7" stroke-opacity="0.52"/>
  <text x="978" y="355" fill="#F8FAFC" font-family="Segoe UI, Arial, sans-serif" font-size="20" font-weight="700">pfSense</text>
  <text x="961" y="379" fill="#D1FAE5" font-family="Segoe UI, Arial, sans-serif" font-size="14">Routing + policy + logs</text>

  <rect x="808" y="452" width="136" height="44" rx="22" fill="#0B1B29" stroke="#5EEAD4" stroke-opacity="0.35"/>
  <text x="851" y="480" fill="#CCFBF1" font-family="Segoe UI, Arial, sans-serif" font-size="16" font-weight="600">Kali</text>

  <rect x="964" y="452" width="136" height="44" rx="22" fill="#0B1B29" stroke="#86EFAC" stroke-opacity="0.35"/>
  <text x="996" y="480" fill="#DCFCE7" font-family="Segoe UI, Arial, sans-serif" font-size="16" font-weight="600">Servers</text>

  <rect x="1120" y="452" width="76" height="44" rx="22" fill="#0B1B29" stroke="#7DD3FC" stroke-opacity="0.35"/>
  <text x="1138" y="480" fill="#E0F2FE" font-family="Segoe UI, Arial, sans-serif" font-size="16" font-weight="600">SOC</text>

  <path d="M970 240H1038" stroke="#67E8F9" stroke-width="4" stroke-linecap="round"/>
  <path d="M1014 276V322" stroke="#6EE7B7" stroke-width="4" stroke-linecap="round"/>
  <path d="M878 452L978 404" stroke="#5EEAD4" stroke-width="4" stroke-linecap="round"/>
  <path d="M1032 452V406" stroke="#86EFAC" stroke-width="4" stroke-linecap="round"/>
  <path d="M1158 452L1060 404" stroke="#7DD3FC" stroke-width="4" stroke-linecap="round"/>

  <circle cx="970" cy="240" r="8" fill="#67E8F9"/>
  <circle cx="1038" cy="240" r="8" fill="#67E8F9"/>
  <circle cx="1014" cy="322" r="8" fill="#6EE7B7"/>
  <circle cx="978" cy="404" r="8" fill="#5EEAD4"/>
  <circle cx="1032" cy="406" r="8" fill="#86EFAC"/>
  <circle cx="1060" cy="404" r="8" fill="#7DD3FC"/>
</svg>
